Coordinates
version=1
nRows=6
nColumns=63
inDegrees=yes

Units are S.I. units (second, meters, Newtons, ...)
If the header above contains a line with 'inDegrees', this indicates whether rotational values are in degrees (yes) or radians (no).

endheader
time	pelvis_tilt	pelvis_list	pelvis_rotation	pelvis_tx	pelvis_ty	pelvis_tz	hip_flexion_r	hip_adduction_r	hip_rotation_r	knee_angle_r	knee_angle_r_beta	ankle_angle_r	subtalar_angle_r	mtp_angle_r	hip_flexion_l	hip_adduction_l	hip_rotation_l	knee_angle_l	knee_angle_l_beta	ankle_angle_l	subtalar_angle_l	mtp_angle_l	L5_S1_Flex_Ext	L5_S1_Lat_Bending	L5_S1_axial_rotation	L4_L5_Flex_Ext	L4_L5_Lat_Bending	L4_L5_axial_rotation	L3_L4_Flex_Ext	L3_L4_Lat_Bending	L3_L4_axial_rotation	L2_L3_Flex_Ext	L2_L3_Lat_Bending	L2_L3_axial_rotation	L1_L2_Flex_Ext	L1_L2_Lat_Bending	L1_L2_axial_rotation	L1_T12_Flex_Ext	L1_T12_Lat_Bending	L1_T12_axial_rotation	Abs_r3	Abs_r2	Abs_r1	Abs_t1	Abs_t2	neck_flexion	neck_bending	neck_rotation	arm_flex_r	arm_add_r	arm_rot_r	elbow_flex_r	pro_sup_r	wrist_flex_r	wrist_dev_r	arm_flex_l	arm_add_l	arm_rot_l	elbow_flex_l	pro_sup_l	wrist_flex_l	wrist_dev_l
      1.35000000	     -1.12447929	     -0.62543440	     87.62611357	      0.15525206	      0.86144283	      0.52629220	      4.93203190	     -0.19758006	      0.53119707	      9.87035983	      0.17227028	     29.48473432	      4.13108987	      0.00000000	      3.96048977	      0.12391053	     10.51882338	      7.18711697	      0.12543885	     19.42762337	     -8.18079594	      0.00000000	      0.17166210	      0.07136802	      0.72272534	      0.31879369	      0.09491947	      0.76789568	      0.28202367	      0.17352421	      0.76789568	      0.19619262	      0.17352421	      0.63238467	      0.15940543	      0.14553367	      0.58721434	      0.09808773	      0.11054907	      0.54204401	      1.22616523	      0.80732936	      4.01958154	      0.00000000	      0.00000000	     24.22977132	      1.18586469	     -5.71602416	     56.10123085	     -7.15663060	     57.42188429	     39.11134345	     88.99843502	      5.30016966	      2.18523868	     60.50476286	     -8.07161813	     63.29833152	     36.47261135	     32.35148233	     13.71033135	     24.97378317
      1.36666667	     -1.30576901	     -0.76859859	     87.46746069	      0.15558240	      0.86139597	      0.52550479	      4.61676088	     -0.32751629	      1.16615101	      8.98716442	      0.15685561	     28.91997780	      3.69356868	      0.00000000	      3.97511121	      0.35177166	     11.32817483	      7.06730682	      0.12334777	     19.04639122	     -9.39422613	      0.00000000	      0.19709921	      0.03849348	      0.98197802	      0.36603295	      0.05119632	      1.04335165	      0.32381430	      0.09359304	      1.04335165	      0.22526469	      0.09359304	      0.85923077	      0.18302633	      0.07849590	      0.79785714	      0.11262249	      0.05962640	      0.73648352	      1.40785998	      0.43544591	      5.46146717	      0.00000000	      0.00000000	     24.92011491	      0.32552057	     -7.84333369	     51.55098936	     -6.92007140	     48.63620598	     39.87844361	     88.82037147	     13.81121949	     11.42375708	     57.62237646	     -7.35737647	     62.02291831	     36.40834660	     47.29002353	     14.96392907	     18.15024977
      1.38333333	     -1.56125929	     -0.95141341	     87.18021816	      0.15586264	      0.86149669	      0.52433533	      4.20118436	     -0.51434475	      2.45794601	      7.85020370	      0.13701190	     28.05241300	      2.53774517	      0.00000000	      3.89794205	      0.64888909	     12.13646268	      6.73575785	      0.11756115	     18.28194087	    -10.82092199	      0.00000000	      0.22505923	      0.01078834	      1.26106650	      0.41795749	      0.01434849	      1.33988316	      0.36974980	      0.02623077	      1.33988316	      0.25722019	      0.02623077	      1.10343319	      0.20899000	      0.02199958	      1.02461653	      0.12859884	      0.01671114	      0.94579988	      1.60757555	      0.12203984	      7.01367356	      0.00000000	      0.00000000	     25.56276928	     -0.68930239	     -9.40165125	     46.26590622	     -5.65400161	     37.97222284	     39.87763775	     88.10270579	     18.69489398	     19.54458007	     53.80605393	     -6.51496071	     58.09336686	     36.78540223	     69.06946555	     15.05785054	     11.21445277
      1.40000000	     -1.82400014	     -1.09889964	     86.86066156	      0.15605340	      0.86158991	      0.52328993	      3.75797580	     -0.75075614	      3.58180928	      6.73086351	      0.11747573	     27.14786270	      1.62967842	      0.00000000	      3.70799270	      0.91465555	     12.60626484	      6.21040137	      0.10839195	     17.40755383	    -11.80999816	      0.00000000	      0.24780457	     -0.01298770	      1.53947619	      0.46019787	     -0.01727364	      1.63569345	      0.40711813	     -0.03157829	      1.63569345	      0.28321585	     -0.03157829	      1.34704167	      0.23011133	     -0.02648452	      1.25082441	      0.14159553	     -0.02011795	      1.15460714	      1.77004328	     -0.14691945	      8.56210474	      0.00000000	      0.00000000	     25.93299868	     -1.77179931	    -10.93353161	     41.50913474	     -4.45714911	     29.87391724	     39.54883484	     85.42042621	     18.55795024	     24.77730194	     50.68972012	     -5.87467291	     57.97546996	     37.00022685	     82.44549208	     12.16741845	      5.82266082
      1.41666667	     -2.03411728	     -1.24706901	     86.65545800	      0.15557789	      0.86149969	      0.52241146	      3.38540445	     -1.00893702	      4.21612791	      5.77267816	      0.10075224	     26.41603615	      1.17865312	      0.00000000	      3.45627688	      1.12603844	     12.82763328	      5.47628488	      0.09557920	     16.51878900	    -12.35686421	      0.00000000	      0.26416473	     -0.01789418	      1.72391325	      0.49058033	     -0.02379927	      1.83165782	      0.43399624	     -0.04350792	      1.83165782	      0.30191387	     -0.04350792	      1.50842409	      0.24530337	     -0.03648982	      1.40067951	      0.15094373	     -0.02771809	      1.29293493	      1.88690227	     -0.20242259	      9.58788830	      0.00000000	      0.00000000	     26.28910097	     -2.45213314	    -11.41831817	     37.85858106	     -4.04655779	     26.90590399	     38.84356949	     80.43172673	     15.01775984	     26.70430365	     47.19761490	     -5.24070941	     57.57740425	     37.09311594	     85.80228828	      9.18687025	      5.27937572
      1.43333333	     -2.05422128	     -1.47223079	     86.57485951	      0.15446066	      0.86095304	      0.52147972	      3.23152978	     -1.08216142	      5.18894313	      5.15664206	      0.09000038	     25.79759150	     -0.03853306	      0.00000000	      3.24112382	      1.16426182	     13.66851747	      4.63911362	      0.08096781	     15.62451965	    -13.50636769	      0.00000000	      0.28253064	      0.00502845	      1.83631892	      0.52468766	      0.00668784	      1.95108885	      0.46416959	      0.01222618	      1.95108885	      0.32290427	      0.01222618	      1.60677905	      0.26235795	      0.01025402	      1.49200912	      0.16143801	      0.00778907	      1.37723919	      2.01808813	      0.05688286	     10.21305493	      0.00000000	      0.00000000	     26.69010425	     -3.58142010	    -12.06682871	     34.92396525	     -4.59160858	     27.96532364	     37.98853976	     76.18951985	     10.13073776	     24.92575358	     43.29175570	     -3.99579714	     54.71657658	     36.19363370	     85.62331769	      9.81566037	      6.86119133
